<?xml version="1.0" standalone="no"?>
<!DOCTYPE svg PUBLIC "-//W3C//DTD SVG 20010904//EN"
 "http://www.w3.org/TR/2001/REC-SVG-20010904/DTD/svg10.dtd">
<svg version="1.0" xmlns="http://www.w3.org/2000/svg"
 width="1000.000000pt" height="1000.000000pt" viewBox="0 0 1000.000000 1000.000000"
 preserveAspectRatio="xMidYMid meet">
<metadata>
Created by potrace 1.14, written by Peter Selinger 2001-2017
</metadata>
<g transform="translate(0.000000,1000.000000) scale(0.100000,-0.100000)"
fill="#000000" stroke="none">
<path d="M3015 7535 l-1940 -2126 -3 -74 -3 -75 1916 0 1915 0 0 -260 0 -260
-1915 0 -1915 0 0 -72 0 -73 1941 -2125 1941 -2125 48 0 48 0 1941 2125 1941
2125 0 73 0 72 -1915 0 -1915 0 0 260 0 260 1915 0 1915 0 0 73 0 72 -1941
2125 -1941 2125 -46 3 -47 2 -1940 -2125z m3701 -10 c939 -1028 1747 -1914
1797 -1967 l89 -98 -718 0 -719 1 -1080 1184 c-594 652 -1082 1184 -1085 1184
-3 0 -491 -532 -1085 -1184 l-1080 -1184 -718 -1 -719 0 59 64 c32 35 841 921
1798 1970 957 1048 1743 1905 1747 1903 4 -1 775 -843 1714 -1872z m-1819
-2052 c-2 -2 -402 -2 -889 -1 l-885 3 886 970 886 970 3 -969 c1 -533 1 -971
-1 -973z m1891 100 l94 -103 -891 0 -891 0 0 975 0 975 797 -872 c438 -480
839 -919 891 -975z m-2873 -2218 c594 -652 1082 -1185 1085 -1185 3 0 491 533
1085 1185 l1080 1184 719 0 718 1 -89 -97 c-50 -54 -858 -939 -1797 -1968
-939 -1029 -1711 -1870 -1716 -1870 -5 0 -777 841 -1716 1870 -939 1029 -1747
1914 -1797 1968 l-89 97 718 -1 719 0 1080 -1184z m985 198 c0 -537 -4 -973
-8 -967 -26 28 -1601 1755 -1680 1842 l-94 102 891 0 891 0 0 -977z m1888 875
c-79 -87 -1654 -1814 -1680 -1842 -4 -6 -8 430 -8 967 l0 977 891 0 891 0 -94
-102z"/>
</g>
</svg>
